<svg width="20" height="20" viewBox="-0.1 -0.05 0.6 0.6" xmlns="http://www.w3.org/2000/svg" preserveAspectRatio="xMinYMin" fill="currentColor"><path d="M.075.45a.025.025 0 1 0 0-.05.025.025 0 0 0 0 .05M.1.275v.079a.075.075 0 1 1-.05 0V.146a.075.075 0 1 1 .05 0v.058L.125.2h.151A.025.025 0 0 0 .301.175V.146A.075.075 0 0 1 .325 0a.075.075 0 0 1 .026.145v.029a.075.075 0 0 1-.075.075H.125A.025.025 0 0 0 .1.274M.075.1a.025.025 0 1 0 0-.05.025.025 0 0 0 0 .05m.25 0a.025.025 0 1 0 0-.05.025.025 0 0 0 0 .05"/></svg>
