<svg xmlns="http://www.w3.org/2000/svg" viewBox="0 0 14 14" width="14" height="14" fill="currentColor"><path d="m13.535 12.745-2.994-2.991a5.74 5.74 0 0 0 1.318-3.672 5.74 5.74 0 0 0-1.693-4.088C9.075.902 7.624.301 6.079.301S3.084.902 1.991 1.994a5.786 5.786 0 0 0 0 8.173 5.74 5.74 0 0 0 4.088 1.693 5.73 5.73 0 0 0 3.672-1.318l2.994 2.994a.559.559 0 1 0 .79-.79M9.376 9.38c-.881.881-2.051 1.367-3.298 1.367S3.661 10.263 2.78 9.38a4.67 4.67 0 0 1 0-6.595c.881-.881 2.051-1.364 3.298-1.364s2.417.484 3.298 1.364 1.367 2.051 1.367 3.298a4.64 4.64 0 0 1-1.367 3.298"/><path d="M8.739 5.524H6.636V3.418c0-.309-.248-.558-.558-.558s-.558.248-.558.558v2.106H3.418c-.309 0-.558.248-.558.558s.248.558.558.558h2.103v2.103c0 .309.248.558.558.558s.558-.248.558-.558V6.639H8.74a.556.556 0 0 0 .558-.558.555.555 0 0 0-.558-.558"/></svg>
