<svg width="20" height="20" viewBox="0 0 0.6 0.6" fill="none" xmlns="http://www.w3.org/2000/svg"><path d="M.45.4V.26A.11.11 0 0 0 .34.15H.275" stroke="currentColor" stroke-width=".038" stroke-miterlimit="10" stroke-linecap="round"/><path d="m.325.1-.05.05.05.05" stroke="currentColor" stroke-width=".038" stroke-linecap="round" stroke-linejoin="round"/><path d="M.45.5a.05.05 0 1 0 0-.1.05.05 0 0 0 0 .1Zm-.3 0a.05.05 0 1 0 0-.1.05.05 0 0 0 0 .1Zm0-.3a.05.05 0 1 0 0-.1.05.05 0 0 0 0 .1Z" fill="currentColor" fill-opacity=".16" stroke="currentColor" stroke-width=".038" stroke-miterlimit="10"/><path d="M.15.4V.2" stroke="currentColor" stroke-width=".038" stroke-miterlimit="10" stroke-linecap="round"/></svg>
