<svg width="20" height="20" viewBox="0 0 0.6 0.6" xmlns="http://www.w3.org/2000/svg"><g fill="none"><path d="M.6 0v.6H0V0zM.315.581.313.582H.312L.31.581H.309v.012l.003.002.003-.002V.582M.322.579.317.581v.011l.005.002h.001zL.321.578m-.018 0H.302L.301.593v.001L.306.592V.581z"/><path d="M.506.369a.037.037 0 0 1-.003.064l-.18.095a.05.05 0 0 1-.047 0L.096.433A.037.037 0 0 1 .093.369L.095.37l.181.096a.05.05 0 0 0 .047 0l.18-.095zm0-.1a.038.038 0 0 1 0 .063L.503.334l-.18.095A.05.05 0 0 1 .28.431L.276.429.096.334A.037.037 0 0 1 .093.27l.002.001.181.096a.05.05 0 0 0 .043.002L.323.367l.18-.095L.506.27M.323.073l.18.095a.037.037 0 0 1 0 .066l-.18.095a.05.05 0 0 1-.047 0L.097.233a.037.037 0 0 1 0-.066l.18-.095a.05.05 0 0 1 .047 0" fill="currentColor"/></g></svg>
