<svg width="14" height="14" viewBox="0 0 0.35 0.35" xmlns="http://www.w3.org/2000/svg"><path fill="currentColor" d="M.174.044c.036 0 .074.014.108.043A.295.295 0 0 1 .348.17a.01.01 0 0 1 0 .011.2.2 0 0 1-.173.125.149.149 0 0 1-.1-.037.293.293 0 0 1-.073-.088.013.013 0 0 1 0-.012.269.269 0 0 1 .059-.077.17.17 0 0 1 .113-.048Zm.001.06a.069.069 0 0 0-.068.07c0 .039.03.07.068.07.038 0 .068-.031.068-.07S.213.103.175.103Zm0 .025c.024 0 .044.02.044.045S.199.219.175.219.131.199.131.174.151.129.175.129Z"/></svg>
